<svg xmlns="http://www.w3.org/2000/svg" viewBox="0 0 512 512">
  <defs>
    <linearGradient id="bg" x1="0" y1="0" x2="1" y2="1">
      <stop offset="0%" stop-color="#D2C3F0"/>
      <stop offset="40%" stop-color="#B8A5D8"/>
      <stop offset="100%" stop-color="#9680C8"/>
    </linearGradient>
    <linearGradient id="glass" x1="0" y1="0" x2="0.5" y2="0.6">
      <stop offset="0%" stop-color="white" stop-opacity="0.35"/>
      <stop offset="100%" stop-color="white" stop-opacity="0.05"/>
    </linearGradient>
  </defs>
  <!-- Rounded square background -->
  <rect x="0" y="0" width="512" height="512" rx="112" fill="url(#bg)"/>
  <!-- Glass highlight -->
  <rect x="0" y="0" width="512" height="512" rx="112" fill="url(#glass)"/>
  <!-- Border -->
  <rect x="4" y="4" width="504" height="504" rx="108" fill="none" stroke="white" stroke-opacity="0.25" stroke-width="4"/>
  <!-- Infinity symbol -->
  <path d="M256 256C256 256 290 190 340 190C380 190 410 215 410 256C410 297 380 322 340 322C290 322 256 256 256 256ZM256 256C256 256 222 322 172 322C132 322 102 297 102 256C102 215 132 190 172 190C222 190 256 256 256 256Z"
    fill="none" stroke="white" stroke-opacity="0.15" stroke-width="32" stroke-linecap="round" stroke-linejoin="round"/>
  <path d="M256 256C256 256 290 190 340 190C380 190 410 215 410 256C410 297 380 322 340 322C290 322 256 256 256 256ZM256 256C256 256 222 322 172 322C132 322 102 297 102 256C102 215 132 190 172 190C222 190 256 256 256 256Z"
    fill="none" stroke="white" stroke-opacity="0.92" stroke-width="24" stroke-linecap="round" stroke-linejoin="round"/>
</svg>
